<svg width="104" height="90" viewBox="0 0 104 90" xmlns="http://www.w3.org/2000/svg" xmlns:sketch="http://www.bohemiancoding.com/sketch/ns"><title>Unsplash</title><path d="M52.2 36.1c-8.5 0-15.5 6.9-15.5 15.5s7 15.4 15.5 15.4 15.5-6.9 15.5-15.5-6.9-15.4-15.5-15.4zm37.8-22.4h-12l-2.7-7.3c-1.4-3.5-5.6-6.4-9.3-6.4h-27.5c-3.8 0-7.9 2.9-9.3 6.4l-2.7 7.3h-12c-7.6 0-13.7 6.2-13.7 13.7v48.1c0 7.6 6.2 13.7 13.7 13.7h75.5c7.6 0 13.7-6.2 13.7-13.7v-48c.1-7.6-6.1-13.8-13.7-13.8zm-37.8 61.9c-13.3 0-24-10.8-24-24s10.8-24 24-24c13.3 0 24 10.8 24 24s-10.7 24-24 24z" sketch:type="MSShapeGroup" fill="#000"/></svg>