<svg xmlns="http://www.w3.org/2000/svg" width="18" height="18" viewBox="64.5 64.5 18 18" enable-background="new 64.5 64.5 18 18"><path fill="#231F20" d="M82.5 66.727c0-1.229-.997-2.227-2.227-2.227h-13.546c-1.229 0-2.227.997-2.227 2.227v13.547c0 1.229.997 2.227 2.227 2.227h13.547c1.229 0 2.227-.997 2.227-2.227v-13.547zm-8.977 2.992c2.071 0 3.75 1.679 3.75 3.75s-1.679 3.75-3.75 3.75-3.75-1.679-3.75-3.75 1.68-3.75 3.75-3.75zm7.477-.719c0 .414-.336.75-.75.75h-2.25c-.414 0-.75-.336-.75-.75v-2.25c0-.414.336-.75.75-.75h2.25c.414 0 .75.336.75.75v2.25zm-.703 12h-13.5c-.414 0-.797-.383-.797-.797v-8.203h2.488c-.141.469-.214.968-.214 1.48 0 1.402.546 2.715 1.538 3.707s2.31 1.535 3.712 1.535 2.721-.547 3.712-1.539 1.538-2.299 1.538-3.701c0-.513-.073-1.013-.214-1.481h2.44v8.203c0 .413-.29.796-.703.796z"/></svg>