<svg xmlns="http://www.w3.org/2000/svg" width="22.12" height="18" viewBox="20.1 64 22.12 18" enable-background="new 20.1 64 22.12 18"><path d="M42.22 66.133c-.815.361-1.688.604-2.606.717.938-.562 1.659-1.453 1.997-2.513-.876.521-1.847.9-2.883 1.102-.83-.886-2.011-1.439-3.314-1.439-2.508 0-4.538 2.034-4.538 4.542 0 .356.038.703.117 1.036-3.773-.188-7.12-1.997-9.356-4.749-.389.67-.614 1.453-.614 2.283 0 1.575.806 2.967 2.025 3.783-.75-.019-1.453-.225-2.062-.567v.056c0 2.203 1.566 4.036 3.643 4.453-.38.103-.783.16-1.195.16-.291 0-.577-.028-.854-.084.577 1.805 2.255 3.117 4.242 3.155-1.551 1.219-3.511 1.945-5.639 1.945-.366 0-.727-.023-1.083-.066 2.002 1.303 4.388 2.053 6.947 2.053 8.358 0 12.923-6.923 12.923-12.928l-.014-.586c.886-.642 1.655-1.439 2.264-2.353z"/></svg>