<svg xmlns="http://www.w3.org/2000/svg" width="18" height="18" viewBox="32 32 18 18" enable-background="new 32 32 18 18"><path d="M41 32c-4.97 0-9 4.03-9 9s4.03 9 9 9 9-4.03 9-9-4.03-9-9-9zm5.456 14.456c-1.458 1.455-3.395 2.258-5.456 2.258-.651 0-1.29-.081-1.904-.237.112-.253.209-.514.281-.775.112-.402.635-2.475.635-2.475.313.595 1.226 1.121 2.198 1.121 2.893 0 4.857-2.636 4.857-6.167 0-2.667-2.262-5.155-5.697-5.155-4.275 0-6.433 3.066-6.433 5.621 0 1.547.586 2.925 1.844 3.439.205.084.39.004.45-.225l.185-.723c.061-.225.036-.306-.128-.502-.362-.43-.595-.98-.595-1.764 0-2.274 1.7-4.312 4.432-4.312 2.415 0 3.745 1.475 3.745 3.448 0 2.595-1.149 4.785-2.853 4.785-.94 0-1.647-.78-1.422-1.732.269-1.141.795-2.371.795-3.194 0-.735-.394-1.35-1.213-1.35-.964 0-1.736.996-1.736 2.33 0 .848.29 1.422.29 1.422l-1.157 4.906c-.052.221-.088.446-.117.675-.695-.362-1.338-.828-1.904-1.398-1.462-1.455-2.266-3.391-2.266-5.452s.804-3.998 2.258-5.456c1.458-1.455 3.395-2.258 5.456-2.258s3.998.804 5.456 2.258c1.455 1.458 2.258 3.395 2.258 5.456s-.804 3.998-2.259 5.456z"/></svg>